#N canvas 829 208 451 301 10;
#X msg 129 92 \$1 50;
#X obj 32 40 unpack f f;
#X obj 129 114 line~;
#X obj 32 92 mtof;
#X obj 32 136 *~;
#X obj 32 114 tabosc4~ wave;
#X obj 32 16 inlet;
#X floatatom 32 62 5 0 0 0 - - -, f 5;
#X floatatom 89 62 5 0 0 0 - - -, f 5;
#X obj 32 158 outlet~;
#X connect 0 0 2 0;
#X connect 1 0 7 0;
#X connect 1 1 8 0;
#X connect 2 0 4 1;
#X connect 3 0 5 0;
#X connect 4 0 9 0;
#X connect 5 0 4 0;
#X connect 6 0 1 0;
#X connect 7 0 3 0;
#X connect 8 0 0 0;
#X coords 0 -1 1 1 104 46 1 26 38;
