#N canvas 398 178 426 326 10;
#X obj 31 44 bng 15 250 50 0 empty empty empty 17 7 0 10 -262144 -1
-1;
#X msg 9 9 reset;
#X floatatom 31 106 5 0 0 0 - - -, f 5;
#X floatatom 68 106 5 0 0 0 - - -, f 5;
#X obj 31 127 + 48;
#X obj 31 149 makenote 127 250;
#X obj 31 171 noteout;
#X obj 134 35 tgl 15 0 empty empty empty 17 7 0 10 -262144 -1 -1 0
1;
#X obj 144 149 makenote 127 250;
#X obj 134 55 metro 200;
#X obj 144 171 noteout 2;
#X obj 68 127 + 55;
#X obj 250 32 f;
#X obj 250 54 + 1;
#X obj 250 76 mod 7;
#X floatatom 250 98 5 0 0 0 - - -, f 5;
#X obj 250 119 meter 7;
#X floatatom 250 141 5 0 0 0 - - -, f 5;
#X obj 250 162 / 6;
#X floatatom 250 184 5 0 0 0 - - -, f 5;
#X obj 134 77 t b b;
#X obj 250 249 t f f;
#X obj 190 122 *;
#X obj 205 101 tgl 15 0 empty empty empty 17 7 0 10 -262144 -1 -1 0
1;
#X obj 111 123 *;
#X obj 126 102 tgl 15 0 empty empty empty 17 7 0 10 -262144 -1 -1 0
1;
#X obj 250 205 * 40;
#X obj 250 227 + 80;
#X floatatom 288 142 5 0 0 0 - - -, f 5;
#X msg 288 29 5;
#X obj 288 163 t f f;
#X obj 288 185 - 1;
#X msg 315 77 7;
#X msg 322 102 11;
#X obj 31 84 fibs;
#X msg 307 51 3 2;
#X msg 48 9 10;
#X msg 75 9 23;
#X msg 102 9 4;
#X msg 129 9 3;
#X connect 0 0 34 0;
#X connect 1 0 34 0;
#X connect 2 0 4 0;
#X connect 3 0 11 0;
#X connect 4 0 5 0;
#X connect 5 0 6 0;
#X connect 5 1 6 1;
#X connect 7 0 9 0;
#X connect 8 0 10 0;
#X connect 8 1 10 1;
#X connect 9 0 20 0;
#X connect 11 0 8 0;
#X connect 12 0 13 0;
#X connect 13 0 14 0;
#X connect 14 0 15 0;
#X connect 14 0 12 1;
#X connect 15 0 16 0;
#X connect 16 0 17 0;
#X connect 16 1 28 0;
#X connect 17 0 18 0;
#X connect 18 0 19 0;
#X connect 19 0 26 0;
#X connect 20 0 34 0;
#X connect 20 1 12 0;
#X connect 21 0 24 0;
#X connect 21 1 22 0;
#X connect 22 0 8 1;
#X connect 23 0 22 1;
#X connect 24 0 5 1;
#X connect 25 0 24 1;
#X connect 26 0 27 0;
#X connect 27 0 21 0;
#X connect 28 0 30 0;
#X connect 29 0 16 1;
#X connect 30 0 31 0;
#X connect 30 1 14 1;
#X connect 31 0 18 1;
#X connect 32 0 16 1;
#X connect 33 0 16 1;
#X connect 34 0 2 0;
#X connect 34 1 3 0;
#X connect 35 0 16 1;
#X connect 36 0 34 0;
#X connect 37 0 34 0;
#X connect 38 0 34 0;
#X connect 39 0 34 0;
