#N struct nub float x float y float r symbol name;
#N canvas 255 126 735 491 10;
#X obj 466 13 loadbang;
#X scalar nub 94 125 114 amp \;;
#X obj 466 149 route drag;
#X obj 466 171 unpack p 0 0;
#X obj 547 255 +;
#X obj 565 224 * -3;
#X obj 466 193 trigger anything anything;
#X obj 547 277 max 0;
#X obj 547 299 min 360;
#X obj 547 321 set nub r;
#X obj 466 223 get nub name r;
#X symbolatom 393 264 10 0 0 0 - - -, f 10;
#X obj 466 352 list;
#X obj 466 374 list trim;
#X obj 466 396 route amp dur pitch;
#X obj 59 24 struct nub float x float y float r symbol name;
#X obj 552 117 drawsymbol name -20 50;
#X msg 466 85 drag 1 \, transform scale \$1 rotate r;
#X floatatom 425 35 5 0 0 0 scale - -, f 5;
#X obj 466 57 * 0.01;
#X msg 466 35 100;
#X scalar nub 202 125 204 dur \;;
#X scalar nub 307 124 258 pitch \;;
#X obj 494 329 / 360;
#X floatatom 466 448 5 0 0 0 - - -, f 5;
#X obj 504 421 * 1000;
#X floatatom 504 447 5 0 0 0 - - -, f 5;
#X obj 554 420 * 127;
#X floatatom 554 446 5 0 0 0 - - -, f 5;
#X obj 405 88 hradio 23 0 0 2 empty empty style -12 -12 0 10 -262144
-1 -1 0;
#X text 46 212 Right-click and choose "Properties" to see a dialog
;
#N canvas 922 227 567 342 (subpatch) 0;
#X obj 457 204 loadbang;
#X obj 27 212 draw circle 40;
#X obj 419 263 draw line 0 0 0 40;
#X obj 27 13 inlet;
#X text 70 12 style;
#X msg 46 162 stroke-dashoffset 151 \, stroke-dasharray 200 25 \, fill
white \, stroke black \, stroke-width 5;
#X msg 27 132 fill black \, stroke-width 0;
#X msg 457 226 stroke-width 5;
#X obj 111 14 loadbang;
#X msg 111 36 0;
#X obj 27 64 t a a;
#X obj 27 103 sel 0 1;
#X obj 420 103 sel 0 1;
#X msg 420 132 stroke white;
#X msg 439 161 stroke black;
#X connect 0 0 7 0;
#X connect 3 0 10 0;
#X connect 5 0 1 0;
#X connect 6 0 1 0;
#X connect 7 0 2 0;
#X connect 8 0 9 0;
#X connect 9 0 10 0;
#X connect 10 0 11 0;
#X connect 10 1 12 0;
#X connect 11 0 6 0;
#X connect 11 1 5 0;
#X connect 12 0 13 0;
#X connect 12 1 14 0;
#X connect 13 0 2 0;
#X connect 14 0 2 0;
#X restore 466 117 draw g;
#X connect 0 0 20 0;
#X connect 2 0 3 0;
#X connect 3 0 6 0;
#X connect 3 2 5 0;
#X connect 4 0 7 0;
#X connect 5 0 4 1;
#X connect 6 0 10 0;
#X connect 6 1 9 1;
#X connect 7 0 8 0;
#X connect 8 0 9 0;
#X connect 8 0 23 0;
#X connect 10 0 11 0;
#X connect 10 0 12 0;
#X connect 10 1 4 0;
#X connect 12 0 13 0;
#X connect 13 0 14 0;
#X connect 14 0 24 0;
#X connect 14 1 25 0;
#X connect 14 2 27 0;
#X connect 17 0 31 1;
#X connect 18 0 19 0;
#X connect 19 0 17 0;
#X connect 20 0 19 0;
#X connect 23 0 12 1;
#X connect 25 0 26 0;
#X connect 27 0 28 0;
#X connect 29 0 31 0;
#X connect 31 0 2 0;
