#N struct trig float x float y float z;
#N canvas 420 205 451 301 10;
#N canvas 624 224 508 356 triangle 0;
#X msg 20 38 stroke-width 1 \, stroke black \, fill white \, drag 1
;
#X obj 20 82 route drag;
#X obj 20 104 unpack p f f;
#X obj 20 126 t a a;
#X floatatom 20 172 5 0 0 0 - - -, f 5;
#X floatatom 90 174 5 0 0 0 - - -, f 5;
#X floatatom 20 215 5 0 0 0 - - -, f 5;
#X obj 342 66 draw rect 5 10 -30 -10;
#X msg 342 36 drag 1;
#X obj 342 92 route drag;
#X obj 342 114 unpack p f f;
#X obj 342 136 t a a;
#X floatatom 342 182 5 0 0 0 - - -, f 5;
#X floatatom 406 182 5 0 0 0 - - -, f 5;
#X obj 342 203 +;
#X obj 406 203 +;
#X floatatom 342 225 5 0 0 0 - - -, f 5;
#X floatatom 406 225 5 0 0 0 - - -, f 5;
#X obj 20 60 draw polygon -20 0 20 0 0 z(-100:100)(100:-100);
#X obj 20 193 -;
#X obj 20 10 struct trig float x float y float z;
#X obj 20 150 get trig z;
#X obj 342 160 get trig x y;
#X obj 20 236 set trig z;
#X obj 342 246 set trig x y;
#X text 42 266 triangle (drag up/down to move tip);
#X text 326 272 handle (drag to move);
#X obj 320 4 loadbang;
#X connect 0 0 18 0;
#X connect 1 0 2 0;
#X connect 2 0 3 0;
#X connect 2 2 5 0;
#X connect 3 0 21 0;
#X connect 3 1 23 1;
#X connect 4 0 19 0;
#X connect 5 0 19 1;
#X connect 6 0 23 0;
#X connect 7 0 9 0;
#X connect 8 0 7 0;
#X connect 9 0 10 0;
#X connect 10 0 11 0;
#X connect 10 1 14 1;
#X connect 10 2 15 1;
#X connect 11 0 22 0;
#X connect 11 1 24 2;
#X connect 12 0 14 0;
#X connect 13 0 15 0;
#X connect 14 0 16 0;
#X connect 15 0 17 0;
#X connect 16 0 24 0;
#X connect 17 0 24 1;
#X connect 18 0 1 0;
#X connect 19 0 6 0;
#X connect 21 0 4 0;
#X connect 22 0 12 0;
#X connect 22 1 13 0;
#X connect 27 0 0 0;
#X connect 27 0 8 0;
#X restore 328 52 pd triangle;
#X text 20 212 Tip: Enter [trig z] to create a new triangle where z
denotes the inital z value (elevation of the tip of the rectangle).
Drag around the handle to move the object. Drag up or down inside the
triangle to change the z value., f 47;
#X obj 328 30 namecanvas score;
#N canvas 566 225 402 379 seq 0;
#X msg 22 56 traverse score;
#X obj 22 78 pointer trig;
#X msg 122 56 next;
#X obj 22 100 get trig x y z;
#X floatatom 22 122 5 0 0 0 - - -, f 5;
#X floatatom 116 170 5 0 0 0 - - -, f 5;
#X floatatom 181 170 5 0 0 0 - - -, f 5;
#X obj 22 143 t f f b;
#X obj 22 195 -;
#X obj 61 172 f;
#X floatatom 22 217 5 0 0 0 - - -, f 5;
#X obj 172 57 bng 15 250 50 0 empty empty play 17 7 0 10 -262144 -1
-1;
#X msg 206 102 0;
#X obj 124 100 bng 15 250 50 0 empty empty empty 17 7 0 10 -262144
-1 -1;
#X obj 181 191 + 60;
#X floatatom 181 213 5 0 0 0 - - -, f 5;
#X floatatom 22 260 5 0 0 0 - - -, f 5;
#X floatatom 116 260 5 0 0 0 - - -, f 5;
#X obj 116 238 expr (200-$f1)/4+48;
#X obj 116 281 makenote 64 500;
#X obj 116 303 noteout;
#X obj 22 281 del;
#X obj 22 238 * 10;
#X obj 286 94 del 1000;
#X obj 319 41 tgl 15 0 empty empty loop 17 7 0 10 -262144 -1 -1 0 1
;
#X obj 286 66 spigot;
#X obj 172 77 t b b b b;
#X msg 272 136 \; score sort;
#X obj 116 143 f;
#X obj 181 143 f;
#X obj 22 303 t b b b;
#X obj 216 8 inlet;
#X obj 216 30 sel bang;
#X connect 0 0 1 0;
#X connect 1 0 3 0;
#X connect 1 2 13 0;
#X connect 2 0 1 0;
#X connect 3 0 4 0;
#X connect 3 1 28 1;
#X connect 3 2 29 1;
#X connect 4 0 7 0;
#X connect 5 0 18 0;
#X connect 6 0 14 0;
#X connect 7 0 8 0;
#X connect 7 1 9 1;
#X connect 7 2 9 0;
#X connect 8 0 10 0;
#X connect 9 0 8 1;
#X connect 10 0 22 0;
#X connect 11 0 26 0;
#X connect 12 0 9 1;
#X connect 13 0 25 0;
#X connect 14 0 15 0;
#X connect 15 0 19 1;
#X connect 16 0 21 0;
#X connect 17 0 19 0;
#X connect 18 0 17 0;
#X connect 19 0 20 0;
#X connect 19 1 20 1;
#X connect 21 0 30 0;
#X connect 22 0 16 0;
#X connect 23 0 11 0;
#X connect 24 0 25 1;
#X connect 25 0 23 0;
#X connect 26 0 2 0;
#X connect 26 1 0 0;
#X connect 26 2 12 0;
#X connect 26 3 27 0;
#X connect 28 0 5 0;
#X connect 29 0 6 0;
#X connect 30 0 2 0;
#X connect 30 1 28 0;
#X connect 30 2 29 0;
#X connect 31 0 32 0;
#X connect 32 0 11 0;
#X connect 32 1 24 0;
#X restore 338 242 pd seq;
#X obj 328 212 bng 15 250 50 0 empty empty play 17 7 0 10 -262144 -1
-1;
#X obj 382 210 tgl 15 0 empty empty loop 17 7 0 10 -262144 -1 -1 0
1;
#X scalar trig 48 140 60 \;;
#X scalar trig 106 96 34 \;;
#X scalar trig 154 172 30 \;;
#X scalar trig 218 112 38 \;;
#X scalar trig 290 152 52 \;;
#X scalar trig 370 170 22 \;;
#X scalar trig 394 138 30 \;;
#X connect 4 0 3 0;
#X connect 5 0 3 0;
